<svg width="24" height="24" viewBox="0 0 24 24" fill="none" xmlns="http://www.w3.org/2000/svg">
<g opacity="0.5" clip-path="url(#clip0_6_2)">
<path d="M4.5 10.5H19.5V14.5H4.5V10.5Z" fill="#D9D9D9" stroke="black"/>
<path d="M10.0563 20.0148L9.94385 5.0152L13.9437 4.98522L14.0562 19.9848L10.0563 20.0148Z" fill="#D9D9D9" stroke="black"/>
<path d="M4.5 23.25C4.00754 23.25 3.51991 23.153 3.06494 22.9645C2.60997 22.7761 2.19657 22.4999 1.84835 22.1517C1.14509 21.4484 0.75 20.4946 0.75 19.5V4.5C0.75 3.50544 1.14509 2.55161 1.84835 1.84835C2.19657 1.50013 2.60997 1.22391 3.06494 1.03545C3.51991 0.846996 4.00754 0.75 4.5 0.75H19.5C20.4946 0.75 21.4484 1.14509 22.1517 1.84835C22.8549 2.55161 23.25 3.50544 23.25 4.5V19.5C23.25 19.9925 23.153 20.4801 22.9645 20.9351C22.7761 21.39 22.4999 21.8034 22.1517 22.1517C21.8034 22.4999 21.39 22.7761 20.9351 22.9645C20.4801 23.153 19.9925 23.25 19.5 23.25H4.5ZM2.25 19.5C2.25 20.0967 2.48705 20.669 2.90901 21.091C3.33097 21.5129 3.90326 21.75 4.5 21.75H19.5C20.0967 21.75 20.669 21.5129 21.091 21.091C21.5129 20.669 21.75 20.0967 21.75 19.5V4.5C21.75 3.90326 21.5129 3.33097 21.091 2.90901C20.669 2.48705 20.0967 2.25 19.5 2.25H4.5C3.90326 2.25 3.33097 2.48705 2.90901 2.90901C2.48705 3.33097 2.25 3.90326 2.25 4.5V19.5Z" fill="black"/>
</g>
<defs>
<clipPath id="clip0_6_2">
<rect width="24" height="24" fill="white" transform="matrix(1 0 0 -1 0 24)"/>
</clipPath>
</defs>
</svg>
