<svg width="24" height="24" viewBox="0 0 24 24" fill="none" xmlns="http://www.w3.org/2000/svg">
<path d="M3.01 13.28C2.94232 12.0693 3.31826 10.8754 4.06743 9.92191C4.81661 8.96841 5.88765 8.32068 7.08 8.1L6.29 8.87999C6.19742 8.97258 6.12398 9.08249 6.07388 9.20345C6.02377 9.32442 5.99798 9.45406 5.99798 9.58499C5.99798 9.84942 6.10303 10.103 6.29 10.29C6.47698 10.477 6.73058 10.582 6.995 10.582C7.25943 10.582 7.51303 10.477 7.7 10.29L10.29 7.69999C10.3827 7.60748 10.4563 7.49759 10.5064 7.37662C10.5566 7.25565 10.5824 7.12596 10.5824 6.99499C10.5824 6.86403 10.5566 6.73434 10.5064 6.61337C10.4563 6.4924 10.3827 6.38251 10.29 6.28999L7.71 3.69999C7.52303 3.51302 7.26943 3.40797 7.005 3.40797C6.74058 3.40797 6.48698 3.51302 6.3 3.69999C6.11303 3.88697 6.00798 4.14057 6.00798 4.40499C6.00798 4.66942 6.11303 4.92302 6.3 5.10999L7.18 5.98999V6.04999C5.38984 6.26271 3.75091 7.15835 2.60508 8.55012C1.45925 9.94188 0.894992 11.7223 1.03 13.52C1.29 17.22 4.55 20 8.26 20H10C10.55 20 11 19.55 11 19C11 18.45 10.55 18 10 18H8.22C5.52 18 3.15 15.96 3.01 13.28ZM13 15V18C13 19.1 13.9 20 15 20H20C21.1 20 22 19.1 22 18V15C22 13.9 21.1 13 20 13H15C13.9 13 13 13.9 13 15ZM20 18H15V15H20V18ZM20 3.99999H15C13.9 3.99999 13 4.89999 13 5.99999V8.99999C13 10.1 13.9 11 15 11H20C21.1 11 22 10.1 22 8.99999V5.99999C22 4.89999 21.1 3.99999 20 3.99999Z" fill="black" fill-opacity="0.5"/>
</svg>
