<svg width="24" height="24" viewBox="0 0 24 24" fill="none" xmlns="http://www.w3.org/2000/svg">
<g opacity="0.5" clip-path="url(#clip0_2_14)">
<path d="M12.5197 5.75025C12.38 5.61596 12.1938 5.54095 12 5.54095C11.8062 5.54095 11.6199 5.61596 11.4802 5.75025L7.49548 9.585C7.00873 10.053 7.34023 10.875 8.01523 10.875H10.3125C10.3622 10.875 10.4099 10.8948 10.4451 10.9299C10.4802 10.9651 10.5 11.0128 10.5 11.0625V18.375C10.5 18.5739 10.579 18.7647 10.7196 18.9053C10.8603 19.046 11.0511 19.125 11.25 19.125H12.75C12.9489 19.125 13.1397 19.046 13.2803 18.9053C13.421 18.7647 13.5 18.5739 13.5 18.375V11.0625C13.5 11.0128 13.5197 10.9651 13.5549 10.9299C13.5901 10.8948 13.6378 10.875 13.6875 10.875H15.9847C16.6597 10.875 16.9912 10.053 16.5045 9.585L12.5197 5.75025Z" fill="black"/>
<path d="M4.5 0.75C4.00754 0.75 3.51991 0.846997 3.06494 1.03545C2.60997 1.22391 2.19657 1.50013 1.84835 1.84835C1.14509 2.55161 0.75 3.50544 0.75 4.5V19.5C0.75 20.4946 1.14509 21.4484 1.84835 22.1517C2.19657 22.4999 2.60997 22.7761 3.06494 22.9645C3.51991 23.153 4.00754 23.25 4.5 23.25H19.5C20.4946 23.25 21.4484 22.8549 22.1517 22.1517C22.8549 21.4484 23.25 20.4946 23.25 19.5V4.5C23.25 4.00754 23.153 3.51991 22.9645 3.06494C22.7761 2.60997 22.4999 2.19657 22.1517 1.84835C21.8034 1.50013 21.39 1.22391 20.9351 1.03545C20.4801 0.846997 19.9925 0.75 19.5 0.75H4.5ZM2.25 4.5C2.25 3.90326 2.48705 3.33097 2.90901 2.90901C3.33097 2.48705 3.90326 2.25 4.5 2.25H19.5C20.0967 2.25 20.669 2.48705 21.091 2.90901C21.5129 3.33097 21.75 3.90326 21.75 4.5V19.5C21.75 20.0967 21.5129 20.669 21.091 21.091C20.669 21.5129 20.0967 21.75 19.5 21.75H4.5C3.90326 21.75 3.33097 21.5129 2.90901 21.091C2.48705 20.669 2.25 20.0967 2.25 19.5V4.5Z" fill="black"/>
</g>
<defs>
<clipPath id="clip0_2_14">
<rect width="24" height="24" fill="white"/>
</clipPath>
</defs>
</svg>
